HIERARCHY
ROOT Hips
{
 OFFSET 0.000000 0.000000 0.000000
 CHANNELS 6 Xposition Yposition Zposition Yrotation Xrotation Zrotation
 JOINT Chest
 {
  OFFSET 0.000000 9.581000 -0.001100
  CHANNELS 3 Yrotation Xrotation Zrotation
  JOINT Chest2
  {
   OFFSET 0.000000 9.561100 0.002200
   CHANNELS 3 Yrotation Xrotation Zrotation
   JOINT Chest3
   {
    OFFSET 0.000000 9.521100 0.000000
    CHANNELS 3 Yrotation Xrotation Zrotation
    JOINT Chest4
    {
     OFFSET 0.000000 9.511400 0.000000
     CHANNELS 3 Yrotation Xrotation Zrotation
     JOINT Neck
     {
      OFFSET 0.000000 14.375100 0.000000
      CHANNELS 3 Yrotation Xrotation Zrotation
      JOINT Head
      {
       OFFSET 0.000000 8.901200 0.004600
       CHANNELS 3 Yrotation Xrotation Zrotation
       End Site
       {
        OFFSET 0.000000 16.962200 0.002400
       }
      }
     }
     JOINT RightCollar
     {
      OFFSET -2.920100 9.518800 0.000000
      CHANNELS 3 Yrotation Xrotation Zrotation
      JOINT RightShoulder
      {
       OFFSET -13.664500 0.000000 0.000000
       CHANNELS 3 Yrotation Xrotation Zrotation
       JOINT RightElbow
       {
        OFFSET 0.000000 -29.999200 0.000000
        CHANNELS 3 Yrotation Xrotation Zrotation
        JOINT RightWrist
        {
         OFFSET 0.000000 -24.253600 0.000000
         CHANNELS 3 Yrotation Xrotation Zrotation
         End Site
         {
          OFFSET 0.000000 -17.918900 0.000000
         }
        }
       }
      }
     }
     JOINT LeftCollar
     {
      OFFSET 2.920100 9.518800 0.000000
      CHANNELS 3 Yrotation Xrotation Zrotation
      JOINT LeftShoulder
      {
       OFFSET 13.664500 0.000000 0.000000
       CHANNELS 3 Yrotation Xrotation Zrotation
       JOINT LeftElbow
       {
        OFFSET 0.000000 -29.999200 0.000000
        CHANNELS 3 Yrotation Xrotation Zrotation
        JOINT LeftWrist
        {
         OFFSET 0.000000 -24.253600 0.000000
         CHANNELS 3 Yrotation Xrotation Zrotation
         End Site
         {
          OFFSET 0.000000 -17.918900 0.000000
         }
        }
       }
      }
     }
    }
   }
  }
 }
 JOINT RightHip
 {
  OFFSET -7.797300 0.005300 0.000500
  CHANNELS 3 Yrotation Xrotation Zrotation
  JOINT RightKnee
  {
   OFFSET 0.000000 -40.663400 -0.000500
   CHANNELS 3 Yrotation Xrotation Zrotation
   JOINT RightAnkle
   {
    OFFSET 0.000000 -39.523700 -0.000900
    CHANNELS 3 Yrotation Xrotation Zrotation
    JOINT RightToe
    {
     OFFSET 0.000000 -6.418000 14.485300
     CHANNELS 3 Yrotation Xrotation Zrotation
     End Site
     {
      OFFSET 0.000000 -1.465200 6.326400
     }
    }
   }
  }
 }
 JOINT LeftHip
 {
  OFFSET 7.797300 0.005300 0.000500
  CHANNELS 3 Yrotation Xrotation Zrotation
  JOINT LeftKnee
  {
   OFFSET 0.000000 -40.663400 -0.000500
   CHANNELS 3 Yrotation Xrotation Zrotation
   JOINT LeftAnkle
   {
    OFFSET 0.000000 -39.523700 -0.000900
    CHANNELS 3 Yrotation Xrotation Zrotation
    JOINT LeftToe
    {
     OFFSET 0.000000 -6.418000 14.485300
     CHANNELS 3 Yrotation Xrotation Zrotation
     End Site
     {
      OFFSET 0.000000 -1.465200 6.326400
     }
    }
   }
  }
 }
}
MOTION
Frames: 6
Frame Time: 0.008333
-9.480106 126.349559 3.052277 169.734964 -26.655472 -2.760591 1.081183 19.075575 2.067267 0.094462 2.271526 0.219701 0.155389 3.732981 0.371888 0.885398 16.505598 1.771854 0.855523 14.729455 -6.332917 2.394573 -10.093261 -7.031051 0.705132 -6.143286 -0.858553 1.304940 -11.057862 -6.812362 121.520963 -59.623265 -107.493407 6.240932 24.798435 4.486723 -9.965216 -5.559081 1.003488 -1.984832 -15.682723 6.977894 -115.756340 -86.220618 113.400454 -27.814636 13.795898 2.653811 -5.787084 -55.801394 7.086926 -129.060285 85.636480 -130.737532 12.313286 -25.063073 1.795634 -0.005330 -0.004406 -0.002361 -6.313779 -49.151040 -2.397552 57.528727 82.293248 51.111083 1.992558 -9.546357 3.670893 -0.001471 0.001676 -0.000652
-9.479125 126.349195 3.051965 169.734851 -26.653506 -2.759746 1.079607 19.071275 2.067458 0.087750 2.245239 0.229394 0.153975 3.728024 0.370627 0.886157 16.524945 1.764197 0.857479 14.726791 -6.347736 2.400947 -10.078417 -7.053786 0.783459 -6.105261 -0.827587 1.693452 -11.251640 -6.862676 119.394139 -59.109072 -104.945652 7.609908 26.244805 6.331927 -10.000827 -5.551154 0.995462 -2.338430 -15.835149 6.834184 -99.664366 -85.803880 97.435672 -29.585869 15.515726 -1.036285 -5.759679 -55.803359 7.087305 -128.911622 85.618814 -130.591636 12.306076 -25.060605 1.808753 -0.002736 -0.006764 -0.001212 -6.308526 -49.157074 -2.396912 57.590898 82.297697 51.175746 1.986797 -9.544829 3.667852 -0.001392 0.000681 -0.000617
-9.477742 126.348783 3.052064 169.734822 -26.653519 -2.760241 1.075676 19.058816 2.070889 0.090367 2.249881 0.228380 0.154330 3.709124 0.376766 0.880463 16.536865 1.758301 0.861178 14.716929 -6.364420 2.401481 -10.057570 -7.057607 0.822916 -6.080600 -0.812218 2.111458 -11.428892 -6.893294 117.290538 -58.573138 -102.356282 8.887292 27.378372 7.812572 -10.034089 -5.539329 0.983097 -2.705391 -16.014466 6.706282 -86.301824 -85.135920 84.194343 -31.185761 16.961825 -4.304608 -5.749188 -55.802282 7.099567 -128.784036 85.601033 -130.474551 12.300334 -25.057483 1.814254 -0.003345 -0.007559 -0.001482 -6.318063 -49.164257 -2.387583 57.689975 82.305036 51.272052 1.984604 -9.547509 3.662896 -0.000989 -0.002015 -0.000438
-9.476884 126.348170 3.052710 169.737167 -26.653701 -2.757752 1.073450 19.046346 2.075658 0.089184 2.254577 0.224463 0.155185 3.706001 0.377321 0.887457 16.483862 1.777551 0.847791 14.757698 -6.396018 2.400838 -10.042118 -7.064124 0.903519 -6.004491 -0.781012 2.488755 -11.602061 -6.960034 115.170742 -58.017111 -99.705912 9.939200 28.222850 8.891229 -10.073660 -5.481557 0.940164 -3.090010 -16.212341 6.596023 -75.706575 -84.293199 73.701416 -32.601763 18.167639 -7.062714 -5.740354 -55.801226 7.107433 -128.672763 85.584062 -130.376387 12.301366 -25.055289 1.816416 -0.002478 -0.007300 -0.001098 -6.322126 -49.169012 -2.388273 57.757203 82.311595 51.338791 1.983543 -9.549256 3.657174 -0.001205 -0.001696 -0.000534
-9.476474 126.347494 3.053746 169.740963 -26.655650 -2.752185 1.073229 19.032664 2.079570 0.096233 2.235154 0.233841 0.143639 3.729391 0.363855 0.894544 16.465422 1.784614 0.835088 14.779055 -6.408515 2.415210 -10.120117 -7.149628 0.985165 -5.957815 -0.740419 2.874373 -11.777454 -7.026398 113.015727 -57.447480 -97.004990 10.689017 28.825810 9.536596 -10.111382 -5.454476 0.902998 -3.497909 -16.418095 6.511009 -67.427949 -83.326491 65.497441 -33.810655 19.158657 -9.257966 -5.729594 -55.798694 7.107966 -128.574842 85.569374 -130.284008 12.288274 -25.052236 1.810755 -0.001317 -0.006559 -0.000583 -6.319970 -49.170168 -2.397193 57.791436 82.314748 51.372954 1.979901 -9.547714 3.656446 -0.002043 -0.000067 -0.000905
-9.475948 126.346670 3.055568 169.743815 -26.657898 -2.746317 1.075968 19.021470 2.082591 0.091294 2.240400 0.230828 0.149793 3.716422 0.367090 0.889635 16.459706 1.791075 0.836129 14.760285 -6.441150 2.419737 -10.175164 -7.196961 1.051237 -5.895273 -0.712368 3.290767 -11.972005 -7.091950 110.848792 -56.872202 -94.294153 11.128001 29.294483 9.780246 -10.166560 -5.425825 0.789759 -3.923725 -16.622323 6.514438 -61.082967 -82.265268 59.206842 -34.784855 19.938978 -10.906841 -5.719093 -55.796701 7.102909 -128.546557 85.559409 -130.278025 12.332180 -25.054414 1.806163 0.001809 -0.005634 0.000801 -6.317248 -49.170307 -2.406538 57.820944 82.314800 51.401737 1.978110 -9.549057 3.656654 -0.002670 0.000929 -0.001183
